# xmcd
#
# Track frame offsets:
#	150
#	18202
#	30822
#	48950
#	65537
#	79985
#	94670
#	108260
#	125635
#	140405
#	156312
#	172380
#
# Disc length: 2517
#
# Revision: 2
# Processed by: cddbd v1.5.1PL0 Copyright (c) Steve Scherf et al.
# Submitted via: EZCDDA 4.3.3.2
# Normalized: r0:TDELIM( - ),TSWAP
#
DISCID=9a09d30c
DTITLE=Varies - 1990's Country
DYEAR=1900
DGENRE=
TTITLE0=Alan Jackson - Who's Cheatin' Who
TTITLE1=Clint Black - Summer's Comin'
TTITLE2=Trace Adkins - (This Aim't) No Thinkin' Thing
TTITLE3=BlackHawk - Every Once In A While
TTITLE4=Mindy McCready - Guys Do It All The Time
TTITLE5=Bryan White - Love Is The Right Place
TTITLE6=John Anderson - Money In The Bank
TTITLE7=Diamond Rio - Walkin' Away
TTITLE8=Aaron Tippin - That's As Close As I'll Get To Lovin' You
TTITLE9=Lila McCann - With You
TTITLE10=Alabama - Sad Lookin' Moon
TTITLE11=Kenny Chesney - Me And You
EXTD=
EXTT0=
EXTT1=
EXTT2=
EXTT3=
EXTT4=
EXTT5=
EXTT6=
EXTT7=
EXTT8=
EXTT9=
EXTT10=
EXTT11=
PLAYORDER=
